PathFileType	4	(X/Y/Z)	OpenSim_Sub09_CSStiffKnee_Gyro.trc
DataRate	CameraRate	NumFrames	NumMarkers	Units	OrigDataRate	OrigDataStartFrame	OrigNumFrames
100	100	20	8	m	100	6237	7127
Frame#	Time	torso_imu_offset_imu	pelvis_imu_offset_imu	tibia_r_imu_offset_imu	femur_r_imu_offset_imu	tibia_l_imu_offset_imu	femur_l_imu_offset_imu	toes_r_imu_offset_imu	toes_l_imu_offset_imu
				X1	Y1	Z1	X2	Y2	Z2	X3	Y3	Z3	X4	Y4	Z4	X5	Y5	Z5	X6	Y6	Z6	X7	Y7	Z7	X8		Y8	Z8	

6237	62.36000000	-0.61074631	-0.18434415	-0.30704678	-0.55274730	-0.07197018	0.28508766	-1.27443711	0.22550476	2.99189800	0.92369791	0.62163048	0.69375447	0.42470597	-0.16997050	0.75533249	-0.04225344	-0.20163457	0.64892202	-1.17713188	2.53747636	0.78983955	-0.09802049	-0.45888217	0.13031850
6238	62.37000000	-0.53691411	-0.19193383	-0.35293043	-0.53962557	-0.00778171	0.20839491	-1.26926038	0.32862515	3.21696583	0.74875226	0.63631059	0.69146105	0.42541414	-0.13226332	0.76103684	-0.00805588	-0.19472861	0.71961388	-1.16855791	2.58119113	1.15511254	-0.09384720	-0.48656777	0.10545437
6239	62.38000000	-0.48615517	-0.20842340	-0.38344472	-0.53042589	0.06587362	0.14138869	-1.20184003	0.43324965	3.42858456	0.57550794	0.61693116	0.72944649	0.37338828	-0.10901012	0.72982004	-0.04042509	-0.13072311	0.73707345	-1.09921858	2.64207499	1.47908967	-0.10532611	-0.53946780	0.11338555
6240	62.39000000	-0.45234486	-0.22505013	-0.38514802	-0.51848577	0.16008194	0.10366797	-1.07319775	0.54119182	3.59223488	0.44916117	0.58058677	0.77946982	0.29916031	-0.09867776	0.67955646	-0.02114755	-0.09121525	0.75085451	-1.01355375	2.74889391	1.73950588	-0.03014332	-0.59164805	0.15046531
6241	62.40000000	-0.41909630	-0.24329780	-0.37748527	-0.49784944	0.22951451	0.08664815	-0.83905529	0.67681618	3.67857982	0.34953140	0.53841056	0.83470553	0.19372771	-0.10132471	0.68031449	-0.03950851	-0.09360008	0.76097172	-0.96390734	2.86002941	1.91565433	0.05390644	-0.63820420	0.20907975
6242	62.41000000	-0.38034205	-0.27153081	-0.37640151	-0.45708725	0.26170067	0.06182009	-0.50838065	0.80054255	3.69876174	0.26668937	0.51483339	0.87507401	0.16445809	-0.12045534	0.67484339	-0.14605340	-0.09632012	0.74476786	-0.90912101	2.94139223	2.00030238	0.08069210	-0.66522120	0.22373973
6243	62.42000000	-0.33944166	-0.29704915	-0.36893574	-0.40642817	0.25174545	0.05439318	-0.15888648	0.87076503	3.67707301	0.20219121	0.47032611	0.91367810	0.17000945	-0.09414818	0.68692896	-0.25349025	-0.11786012	0.73535372	-0.78961090	2.99173460	2.00102739	0.10215388	-0.67242083	0.22080851
6244	62.43000000	-0.29622249	-0.32797755	-0.35519971	-0.35385055	0.23724103	0.04896012	0.18435791	0.93889514	3.67086098	0.15610677	0.38788768	0.92075914	0.21509746	-0.04095323	0.67408999	-0.33627593	-0.13315576	0.72698795	-0.62619158	3.01978446	1.94765072	0.10043366	-0.67076103	0.21893821
6245	62.44000000	-0.24120895	-0.34745396	-0.35214510	-0.31356439	0.23360832	0.04590722	0.49004848	1.05980200	3.69011298	0.13324296	0.25553002	0.86679749	0.17507014	-0.05392219	0.68356894	-0.38703849	-0.14104664	0.70441242	-0.47296075	3.04545630	1.89491859	0.08668622	-0.64238606	0.24450899
6246	62.45000000	-0.19414912	-0.35547593	-0.35295426	-0.26673741	0.22852227	0.05813696	0.68102212	1.21633758	3.71383248	0.09605525	0.07443364	0.78067945	0.14220857	-0.04577482	0.73091264	-0.41425425	-0.16011292	0.67877652	-0.35832868	3.06268515	1.85499289	0.05421244	-0.61059095	0.27793023
6247	62.46000000	-0.13448015	-0.34459833	-0.35213342	-0.22414658	0.22208611	0.07199409	0.73275140	1.37789932	3.71603086	0.04875383	-0.12610331	0.66770713	0.11100358	-0.04423797	0.75346981	-0.41900712	-0.15067923	0.65258260	-0.26335537	3.06412753	1.81468370	0.03036088	-0.57639662	0.30259015
6248	62.47000000	-0.07199316	-0.32135956	-0.34642321	-0.17170486	0.20586685	0.09446659	0.63710375	1.50143005	3.67245125	0.00335350	-0.30357150	0.55300311	0.13746314	-0.02443849	0.76019035	-0.37655029	-0.13705199	0.63422399	-0.16317905	3.03191329	1.76027832	0.00038717	-0.54340410	0.34358148
6249	62.48000000	0.00677966	-0.29470685	-0.32750439	-0.10794295	0.17971292	0.12077510	0.39444647	1.55850429	3.60155971	-0.03755628	-0.43966789	0.43832993	0.17693356	-0.01959978	0.77213511	-0.28216856	-0.15339273	0.61625941	-0.07031365	2.94741257	1.69168754	-0.03969666	-0.50932070	0.38102502
6250	62.49000000	0.06914716	-0.27276197	-0.30210401	-0.03669058	0.14691242	0.13533826	0.07341998	1.54033979	3.53242982	-0.08146295	-0.53214827	0.33727022	0.23100042	-0.02686369	0.81420858	-0.17668397	-0.15764829	0.59472808	-0.01639083	2.79345413	1.61542076	-0.06899390	-0.47988756	0.41082470
6251	62.50000000	0.13188884	-0.26202162	-0.27120183	0.04309196	0.12162673	0.13200909	-0.23065181	1.45560404	3.45988091	-0.11734060	-0.56956405	0.23573533	0.31306334	-0.01169708	0.84047153	-0.06575482	-0.13217132	0.57857725	-0.01033500	2.62828222	1.55159855	-0.10385456	-0.44067651	0.43884884
6252	62.51000000	0.19081696	-0.25945276	-0.21925098	0.12749630	0.09142061	0.11912237	-0.47552124	1.34179460	3.38359769	-0.14918524	-0.58464006	0.16261221	0.37549197	-0.00848702	0.82860257	0.08365304	-0.10372640	0.58209242	-0.01228854	2.61479553	1.51124228	-0.13132862	-0.40826181	0.46826306
6253	62.52000000	0.24577422	-0.26062809	-0.17580023	0.19504076	0.07545309	0.11710192	-0.59696661	1.28436450	3.30786854	-0.17096733	-0.59391972	0.10915865	0.39210681	0.01155304	0.80948627	0.23510231	-0.07867468	0.59503010	0.03715931	2.82912878	1.47818270	-0.14971431	-0.38215131	0.48858521
6254	62.53000000	0.28956306	-0.25794486	-0.12541189	0.27348365	0.07418646	0.10567626	-0.61813990	1.25311013	3.19843597	-0.18137691	-0.60626270	0.08157867	0.38168784	0.04344482	0.81942700	0.36415054	-0.04349788	0.62775002	0.17623144	3.08479823	1.39802139	-0.16641160	-0.37901312	0.49653369
6255	62.54000000	0.32353478	-0.25475820	-0.07252932	0.35415486	0.09303319	0.09138058	-0.56501181	1.22091139	3.07836757	-0.15672124	-0.63288144	0.07753027	0.34465988	0.07722436	0.83472824	0.44558446	0.03076442	0.62339794	0.29587701	3.20945941	1.25799041	-0.16316443	-0.38327063	0.47899135
6256	62.55000000	0.34744503	-0.24820751	-0.01658004	0.42095485	0.11827779	0.08209918	-0.34017501	1.19793126	2.98794388	-0.05731575	-0.65118029	0.08541660	0.30172761	0.09177911	0.83230272	0.48891114	0.09831785	0.64285782	0.25628090	3.16010580	1.09262732	-0.14819458	-0.39585267	0.46013925
